Patient4_TMGait_0pt6_02_right_31_EMG.mot
version=1
nRows=36
nColumns=33
inDegrees=no
endheader
time	1LAddLong	2LGlutMax	3LGlutMed	4LIliopsoas	5LSemiMemb	6LBicFemLong	7LRecFem	8LVastMed	9LVastLat	10LGasMed	11LTibAnt	12lTibPost	13LPeroneusLong	14LSol	15LExtDigLong	16LFlexDigLong	17RAddLong	18RGlutMax	19RGlutMed	20RIliopsoas	21RSemiMemb	22RBicFemLong	23RRecFem	24RVastMed	25RVastLat	26RGasMed	27RTibAnt	28RTibPost	29RPeroneusLong	30RSol	31RExtDigLong	32RFlexDigLong
38.145	0.019684	-0.012054	-0.042419	0.013733	0.059357	-0.121	-0.081635	0.007629	-0.11581	-0.031281	0.003052	0.007782	0.033722	-0.075836	0.010529	-0.023346	-0.020447	0.059814	0.40924	-0.026703	0.045319	-0.005798	0.085602	-0.079956	0.020752	0.017395	0.090027	0.010834	0.22812	-0.2066	-0.001221	-0.012817
38.146	0.017853	0.016937	-0.025024	0.005188	0.051422	-0.10635	-0.17487	-0.009003	-0.19241	-0.038757	-0.005646	0.00885	0.039673	-0.15488	0.010681	-0.019684	-0.027313	0.12177	0.3093	0.011444	-0.005341	0.030823	-0.010681	-0.12421	0.025024	0.008087	0.18875	0.054016	0.18158	-0.1886	-0.001984	-0.015564
38.147	0.030823	0.012054	0.015717	0.014343	0.035858	-0.11078	-0.2179	-0.026093	-0.1564	-0.041504	-0.003357	0.00824	0.036774	-0.15305	0.005188	-0.024414	-0.034485	0.075073	0.13473	-0.042419	-0.13748	0.11383	-0.11658	-0.12009	0.053101	-0.001678	0.24368	0.031891	0.082855	-0.19089	0.00473	-0.017853
38.148	0.034637	-0.003815	0.0177	0.01236	0.035095	-0.022736	-0.13184	-0.034637	-0.037231	-0.032654	0	0.01297	0.034637	-0.12985	-0.010529	-0.027161	-0.016022	0.023041	0.13001	-0.13412	-0.22003	0.12878	-0.19424	-0.10727	0.054169	-0.003662	0.26733	-0.010376	0.009003	-0.22797	0.000763	-0.01236
38.149	0.016327	0.0354	-0.034485	-0.000763	0.078125	0.071564	-0.05188	-0.045929	0.078583	-0.045166	-0.003967	0.002136	0.032349	-0.086517	0.012817	-0.016022	-0.005798	-0.001373	0.56747	-0.14572	-0.1152	0.072937	-0.27725	-0.046082	0.076294	0	-0.059052	-0.013733	-0.12039	-0.26749	-0.004272	-0.002747
38.15	0.019379	0.01297	-0.071564	0.000305	0.059967	0.12741	-0.049591	-0.031281	0.14267	-0.038605	-0.008545	0.003815	0.010071	-0.072937	-0.012207	-0.005951	0.013428	0.010986	0.42191	-0.052643	-0.06073	0.039063	-0.18448	-0.010223	0.083008	0.003204	-0.25971	-0.010681	0.001068	-0.15106	-0.002899	-0.000916
38.151	0.001221	0.068665	-0.12985	-0.00473	0.038452	0.19714	-0.087585	-0.015106	0.15243	-0.041199	0.000458	-0.003204	0.030975	-0.070038	0.004272	-0.013733	0.023499	-0.082855	0.072174	-0.013275	0.043182	-0.027771	-0.076294	-0.046539	0.051422	-0.00061	-0.12146	-0.010986	0.048828	-0.12421	0.001373	-0.002289
38.152	-0.013733	0.11749	-0.14099	-0.007172	0.016327	0.24078	-0.10468	-0.017242	0.29755	-0.041046	-0.008545	0.001221	0.02655	-0.096283	0.018768	-0.020294	0.021973	-0.023804	0.17166	-0.019073	0.091858	-0.087433	-0.075073	-0.037231	0.044861	-0.003052	-0.05249	-0.013885	-0.037384	-0.12009	-0.002441	0.010681
38.153	-0.011597	0.271	-0.11383	0.003815	0.009613	0.25207	-0.17425	0.055695	0.44952	-0.04303	0.002441	0.00412	0.031738	-0.083923	0.014343	-0.023651	0.024567	0.11246	-0.025635	0.019836	0.034637	-0.09964	-0.19134	-0.089874	0.077667	0.000763	-0.044556	-0.007477	-0.03479	-0.12695	0.001221	-0.002441
38.154	-0.009918	0.27466	-0.14664	0.023499	0.018616	0.26108	-0.23773	0.01236	0.49728	-0.035858	-0.002136	-0.004425	0.048065	-0.097504	0.006866	-0.007782	0.020752	0.083466	0.13748	0.060272	0.00885	-0.10361	-0.21957	-0.071106	0.092926	0.003204	-0.05722	-0.003052	-0.002136	-0.10117	-0.003662	-0.000763
38.155	-0.006104	0.23956	-0.11704	0.016479	0.009918	0.28686	-0.26642	-0.005646	0.31784	-0.04364	-0.005035	-0.000763	0.03418	-0.11047	0.011444	0.000458	0.03006	-0.033264	-0.010834	0.050354	-0.007324	-0.087585	-0.14435	-0.083618	0.074005	0.002747	-0.16373	-0.014954	0.073395	-0.072784	0.001373	-0.005035
38.156	0.002747	0.21515	-0.13641	0.005341	-0.020447	0.29587	-0.23804	-0.011902	0.12573	-0.036926	-0.005035	-0.003662	0.027924	-0.07019	0.00946	-0.00351	0.020142	0.006866	0.60471	-0.028534	-0.004272	-0.12268	-0.14313	-0.052032	0.066681	0.006714	-0.10849	-0.009918	0.06485	-0.050354	-0.002136	-0.001068
38.157	0.00946	0.23636	-0.14267	0.008392	-0.045319	0.084839	-0.1648	-0.007172	-0.002899	-0.032806	-0.005188	-0.007172	0.030365	-0.083618	0.005341	-0.005493	0.045929	0.001373	0.94544	-0.061493	-0.015259	-0.12589	-0.13931	-0.067444	0.06012	0.006104	-0.038757	-0.00946	-0.040588	-0.016937	-0.005493	-0.010376
38.158	0.023804	0.25574	-0.13504	0.005341	-0.072479	-0.1831	-0.099182	-0.012817	-0.12802	-0.032806	-0.006409	-0.037994	0.037994	-0.059662	0.007935	-0.010986	0.027618	0.02182	0.03479	-0.031281	0.005493	-0.066986	-0.13016	-0.10239	0.057068	0.009613	0.071716	-0.011597	-0.1944	0.017548	0.003052	-0.001526
38.159	0.02121	0.34195	-0.14938	0.013885	-0.014191	-0.26459	-0.11551	-0.012054	-0.23727	-0.038605	0.000305	-0.00412	0.036926	-0.028076	0.006409	-0.014954	0.036469	0.007172	-0.43671	0.022583	-0.017395	-0.12299	-0.15305	-0.071411	0.068207	0.012512	0.068359	-0.00885	-0.21576	-0.011749	-0.000458	-0.014191
38.16	0.007782	0.32166	-0.16159	0.010681	0.052032	-0.14862	-0.099945	-0.012817	-0.32166	-0.036011	0.000763	-0.003052	0.025787	-0.076141	0.009918	-0.006256	0.054321	-0.016327	0.085907	-0.06134	-0.007935	-0.036163	-0.19501	-0.069275	0.079651	0.013733	0.054016	-0.010986	-0.24399	-0.032196	0.000763	-0.018463
38.161	-0.006409	0.3067	-0.11856	0.006256	-0.030975	0.043945	-0.15717	-0.015564	-0.20798	0.030365	0.000458	-0.005951	0.013428	-0.0737	0.000458	-0.002594	0.052643	-0.034943	0.28503	-0.040894	0.015259	0.10376	-0.18616	-0.05661	0.070801	0.014648	0.10925	-0.007019	-0.17685	-0.042114	0.00061	-0.022736
38.162	-0.019073	0.33249	-0.093689	0.012817	-0.11948	0.065155	-0.16403	-0.020599	-0.1561	0.10712	-0.005493	-0.005035	0.018005	-0.056458	0.018005	-0.007477	0.035248	-0.065918	0.030823	-0.005188	-0.026398	0.079651	-0.1738	-0.036621	0.068817	0.015564	0.15701	-0.009003	-0.0914	-0.023956	0.011292	-0.023041
38.163	-0.011139	0.31296	-0.068512	0.006256	-0.15686	-0.015869	-0.0737	-0.012054	-0.18234	0.1442	-0.002289	-0.005646	0.023956	-0.0354	0.010071	-0.000916	0.026398	-0.15243	-0.10788	0.01297	0	0.079803	-0.1973	0.009155	0.076141	0.004578	0.15457	-0.010223	0.010986	0.02533	0	-0.018311
38.164	0.001068	0.32608	-0.059967	0.003204	-0.095062	-0.16724	-0.045929	0.011902	-0.26337	0.14725	-0.001373	-0.010681	0.0383	-0.019226	0.011139	-0.007324	0.010529	-0.12177	-0.11765	0.005951	-0.070038	0.034485	-0.1976	-0.040741	0.075378	0.00061	0.027161	-0.003052	0.10147	-0.016327	0.001984	-0.02594
38.165	0.030975	0.35263	-0.077362	-0.001068	0.088959	-0.10056	-0.11429	0.007629	-0.26321	0.12451	-0.009155	-0.01297	0.038147	0.002441	0.018921	-0.007019	-0.014191	-0.11505	-0.00473	-0.034637	-0.067596	0.066528	-0.18829	-0.013885	0.074921	-0.002441	-0.24826	-0.005493	0.21149	-0.027924	0.001678	-0.013123
38.166	0.031891	0.40482	-0.063782	-0.004578	0.26367	-0.18677	-0.16007	0.006409	-0.14053	-0.061951	-0.010376	-0.007629	0.033722	-0.006409	-0.020447	-0.00351	-0.037689	-0.14664	-0.050964	-0.047455	-0.014191	0.081482	-0.12848	0.001984	0.066071	-0.01358	-0.13489	-0.001984	0.14832	0.004272	-0.005646	-0.018463
38.167	0.031891	0.40802	-0.019684	0.007477	0.1387	-0.17456	-0.19867	-0.007019	0.023651	-0.28534	0.011597	-0.014343	0.03952	-0.023499	-0.021667	-0.002899	-0.061951	-0.14771	-0.13565	-0.01709	-0.021973	0.075989	-0.10193	-0.057373	0.061188	-0.018158	-0.024567	-0.003357	0.090179	0.040894	0	-0.014648
38.168	0.038147	0.45273	0.020447	-0.004883	0.029907	-0.11185	-0.15747	-0.021515	0.11292	-0.24536	0.002289	-0.011902	0.035248	-0.044708	-0.019073	-0.001984	-0.067291	-0.15961	-0.055389	-0.014191	0.035095	0.048523	-0.09201	-0.044861	0.065613	-0.014496	0.032043	0.006104	-0.22568	0.12528	0.003204	-0.013275
38.169	0.042725	0.51239	0.061188	0.002899	0.029755	-0.072784	-0.10086	-0.018311	0.17975	-0.14481	0.003662	-0.017395	0.018921	-0.017242	-0.000153	-0.005646	-0.039215	-0.16907	-0.3389	-0.008392	0.027924	-0.000763	-0.075989	-0.036316	0.070648	0.00885	0.039978	0.00061	-0.61081	0.2626	0	-0.014038
38.17	0.010071	0.44601	0.13046	0.050201	-0.037994	-0.08728	-0.080719	-0.011749	0.24399	-0.10696	-0.01709	-0.014496	0.021362	-0.027008	-0.000153	-0.010834	0.016327	-0.18738	-0.13825	-0.041504	0.028381	-0.020752	-0.1239	-0.039978	0.059509	0.037689	0.050507	-0.017853	-0.67505	0.18738	-0.001831	-0.014343
38.171	0.007629	0.36499	0.1384	0.009308	-0.077209	-0.21744	-0.12955	0.002441	0.17654	-0.081177	-0.003967	-0.006866	0.022583	-0.038452	-0.001068	0.006866	0.014343	-0.23392	-0.30136	-0.009003	0.067444	0.010986	-0.12894	-0.061646	0.062866	0.015869	0.049896	-0.14908	-0.18478	-0.12741	0.000305	-0.011292
38.172	0.007935	0.3949	0.14313	0.004425	-0.062256	-0.31998	-0.11551	-0.009308	-0.21835	-0.055237	0.00946	-0.008698	0.034027	-0.055237	0.005798	-0.000916	-0.03006	-0.32928	-0.012512	-0.021515	0.15167	0.085297	-0.077972	-0.050354	0.06897	0.019989	0.004425	-0.27023	0.33768	-0.16968	-0.001373	-0.015717
38.173	0.014038	0.40512	0.14938	-0.020447	0.033264	-0.14206	0.016785	-0.00824	-0.51376	-0.045013	0.002899	-0.008545	0.025482	-0.043335	0.002136	-0.001221	-0.029907	-0.28641	-0.35828	-0.048065	0.19913	0.099792	-0.11765	-0.005951	0.075836	0.015106	-0.020752	0.22263	0.52399	-0.10986	-0.000916	-0.016632
38.174	0.007782	0.41138	0.064087	-0.017548	0.12787	0.036316	0.046387	-0.015564	-0.4538	-0.04303	-0.001984	-0.007172	0.026245	-0.043335	0.008698	0.00061	-0.005951	-0.27481	-0.73837	-0.14099	0.06546	0.13428	-0.11002	-0.037537	0.071716	-0.073242	-0.020142	0.1355	0.6247	0.018311	0.000153	-0.02655
38.175	-0.012665	0.50797	0.028076	0.004578	0.096893	0.083771	-0.078125	0.003357	-0.25635	-0.028229	-0.005341	-0.000458	0.019531	-0.045471	-0.000458	-0.002747	0.028076	-0.22903	0.18341	-0.063629	0.074921	0.078583	-0.083618	0.016632	0.06073	-0.048828	0.005951	0.012512	0.55298	0.34271	0.000763	-0.02594
38.176	-0.010834	0.51941	-0.02533	0.008087	0.082397	0.13306	-0.17288	0.011902	-0.13702	-0.023651	-0.001068	0.001831	-0.016632	-0.040894	-0.001068	-0.007324	0.039063	-0.20279	0.39734	0.069733	0.04303	0.087128	-0.10239	-0.004883	0.058746	-0.032806	0.032501	0.016479	0.41794	0.45151	0.000458	-0.026245
38.177	-0.015564	0.38925	-0.16098	-0.005188	0.11276	0.19959	-0.19745	0.011749	-0.012817	-0.016174	-0.010986	0	-0.001526	-0.06134	0.000153	0.001373	0.041199	-0.23377	0.35934	0.12268	0.038147	0.052185	-0.1329	0.00473	0.063324	-0.024109	0.053253	0.015869	0.24307	0.35568	0.000305	-0.030212
38.178	-0.02533	0.23987	-0.34576	-0.001373	0.082703	0.29633	-0.168	0.006256	0.028076	-0.029755	-0.009918	0.003815	0.067444	-0.045624	-0.000763	-0.002136	0.018921	-0.19257	-0.066071	0.11597	0.0383	-0.034027	-0.16708	0.020142	0.054321	-0.039063	0.072174	-0.0177	0.1506	0.10468	0.000763	-0.020752
38.179	-0.028229	-0.024719	-0.46951	-0.002441	0.011444	0.37796	-0.23117	0.000153	0.055542	-0.00824	-0.010376	0.003204	0.040588	-0.034332	-0.015869	0.001831	0.030518	-0.24521	-0.048981	0.075684	0.008545	-0.024719	-0.19913	-0.037689	0.04715	-0.037537	0.063019	-0.012512	0.1033	-0.064392	-0.002899	-0.027008
38.18	-0.013885	-0.14923	-0.36789	0.011292	-0.00824	0.2182	-0.1532	-0.008392	0.023804	-0.016785	-0.010834	0.003815	0.061188	-0.05661	-0.02594	-0.015564	0.006409	-0.27512	0.16144	0.016785	0.02121	0.012054	-0.20355	-0.032959	0.045166	-0.010681	0.056763	0.000153	0.10422	0.092926	-0.004272	-0.026093
